<svg width="461" height="90" viewBox="0 0 461 90" fill="none" xmlns="http://www.w3.org/2000/svg">
<path d="M132.566 3.84789L328.678 3.54649C339.163 3.53038 349.408 6.68443 358.069 12.5948L382.039 28.9523C382.853 29.5082 383.764 29.9088 384.724 30.1336L449.131 45.2153L384.269 63.9442C383.63 64.1286 383.017 64.3919 382.443 64.728L357.158 79.5454C349.208 84.2044 340.162 86.6671 330.947 86.6812L130.992 86.9885C121.337 87.0034 111.87 84.3303 103.649 79.2687L80.1818 64.8203C79.5355 64.4224 78.836 64.1185 78.1042 63.9177L12.1478 45.8211L77.7691 30.1397C78.7503 29.9052 79.6783 29.4872 80.5042 28.9078L102.782 13.2788C111.509 7.15654 121.906 3.86428 132.566 3.84789Z" fill="#03096D" stroke="#CEBB64" stroke-width="6"/>
</svg>
