<svg width="1534" height="121" viewBox="0 0 1534 121" fill="none" xmlns="http://www.w3.org/2000/svg">
<path id="Polygon 2" d="M30.0948 61.8675L259.552 39.8316C260.022 39.7863 260.488 39.6994 260.944 39.5719L377.175 7.0242C381.714 5.75328 386.404 5.10531 391.117 5.09806L1142.46 3.94333C1147.08 3.93623 1151.68 4.54466 1156.14 5.75253L1277.54 38.6427C1277.99 38.7631 1278.44 38.8449 1278.9 38.8872L1504.04 59.6701L1278.28 85.8225L1278.11 85.8423L1277.94 85.8815L1155.46 114.552C1151.6 115.456 1147.65 115.915 1143.69 115.921L390.441 117.079C386.256 117.085 382.085 116.586 378.02 115.593L260.296 86.831L260.104 86.784L259.907 86.7627L30.0948 61.8675Z" fill="#03096D" stroke="#CEBB64" stroke-width="6"/>
</svg>
